<mxfile host="app.diagrams.net" modified="2024-05-06T09:17:40.853Z" agent="Mozilla/5.0 (Windows NT 10.0; Win64; x64) AppleWebKit/537.36 (KHTML, like Gecko) Chrome/124.0.0.0 Safari/537.36 Edg/124.0.0.0" etag="zmnWtu8WYA8ce5_AxAtd" version="24.3.1" type="github">
  <diagram id="C5RBs43oDa-KdzZeNtuy" name="Page-1">
    <mxGraphModel dx="923" dy="530" grid="1" gridSize="10" guides="1" tooltips="1" connect="1" arrows="1" fold="1" page="1" pageScale="1" pageWidth="827" pageHeight="1169" math="0" shadow="0">
      <root>
        <mxCell id="WIyWlLk6GJQsqaUBKTNV-0" />
        <mxCell id="WIyWlLk6GJQsqaUBKTNV-1" parent="WIyWlLk6GJQsqaUBKTNV-0" />
        <mxCell id="WIyWlLk6GJQsqaUBKTNV-2" value="" style="rounded=0;html=1;jettySize=auto;orthogonalLoop=1;fontSize=11;endArrow=block;endFill=0;endSize=8;strokeWidth=1;shadow=0;labelBackgroundColor=none;edgeStyle=orthogonalEdgeStyle;entryX=0.5;entryY=0;entryDx=0;entryDy=0;exitX=0.5;exitY=1;exitDx=0;exitDy=0;" parent="WIyWlLk6GJQsqaUBKTNV-1" source="ZVZWPxP480O0gG1tIGuu-4" target="ZVZWPxP480O0gG1tIGuu-1" edge="1">
          <mxGeometry relative="1" as="geometry">
            <mxPoint x="230" y="170" as="sourcePoint" />
            <mxPoint x="230" y="260" as="targetPoint" />
          </mxGeometry>
        </mxCell>
        <mxCell id="ZVZWPxP480O0gG1tIGuu-0" value="for i=1:J&lt;div&gt;&amp;nbsp; &amp;nbsp; for j=1:J&lt;/div&gt;&lt;div&gt;&amp;nbsp; &amp;nbsp; &amp;nbsp; &amp;nbsp;pick s=block[i,j]&lt;/div&gt;" style="edgeLabel;html=1;align=left;verticalAlign=middle;resizable=0;points=[];labelBorderColor=#3399FF;textShadow=0;textOpacity=80;" vertex="1" connectable="0" parent="WIyWlLk6GJQsqaUBKTNV-2">
          <mxGeometry x="-0.1494" y="-3" relative="1" as="geometry">
            <mxPoint x="-57" y="7" as="offset" />
          </mxGeometry>
        </mxCell>
        <mxCell id="ZVZWPxP480O0gG1tIGuu-5" value="" style="edgeStyle=orthogonalEdgeStyle;rounded=0;orthogonalLoop=1;jettySize=auto;html=1;endArrow=block;endFill=0;endSize=8;" edge="1" parent="WIyWlLk6GJQsqaUBKTNV-1" source="WIyWlLk6GJQsqaUBKTNV-3" target="ZVZWPxP480O0gG1tIGuu-4">
          <mxGeometry relative="1" as="geometry" />
        </mxCell>
        <mxCell id="WIyWlLk6GJQsqaUBKTNV-3" value="明场图像分块, J*J块" style="rounded=1;whiteSpace=wrap;html=1;fontSize=12;glass=0;strokeWidth=1;shadow=0;" parent="WIyWlLk6GJQsqaUBKTNV-1" vertex="1">
          <mxGeometry x="160" y="30" width="140" height="50" as="geometry" />
        </mxCell>
        <mxCell id="ZVZWPxP480O0gG1tIGuu-7" value="" style="edgeStyle=orthogonalEdgeStyle;rounded=0;orthogonalLoop=1;jettySize=auto;html=1;endSize=8;endArrow=block;endFill=0;" edge="1" parent="WIyWlLk6GJQsqaUBKTNV-1" source="ZVZWPxP480O0gG1tIGuu-1" target="ZVZWPxP480O0gG1tIGuu-6">
          <mxGeometry relative="1" as="geometry" />
        </mxCell>
        <mxCell id="ZVZWPxP480O0gG1tIGuu-1" value="利用ToG指标计算当前block的在焦层索引m" style="rounded=0;whiteSpace=wrap;html=1;" vertex="1" parent="WIyWlLk6GJQsqaUBKTNV-1">
          <mxGeometry x="170" y="270" width="120" height="60" as="geometry" />
        </mxCell>
        <mxCell id="ZVZWPxP480O0gG1tIGuu-4" value="计算明场背景值b（目前手工设定）" style="rounded=0;whiteSpace=wrap;html=1;" vertex="1" parent="WIyWlLk6GJQsqaUBKTNV-1">
          <mxGeometry x="175" y="130" width="110" height="40" as="geometry" />
        </mxCell>
        <mxCell id="ZVZWPxP480O0gG1tIGuu-10" value="" style="edgeStyle=orthogonalEdgeStyle;rounded=0;orthogonalLoop=1;jettySize=auto;html=1;endSize=8;endArrow=block;endFill=0;" edge="1" parent="WIyWlLk6GJQsqaUBKTNV-1" source="ZVZWPxP480O0gG1tIGuu-6" target="ZVZWPxP480O0gG1tIGuu-8">
          <mxGeometry relative="1" as="geometry" />
        </mxCell>
        <mxCell id="ZVZWPxP480O0gG1tIGuu-6" value="利用明场背景值b和当前块的在焦层合成薄样本p" style="rounded=0;whiteSpace=wrap;html=1;" vertex="1" parent="WIyWlLk6GJQsqaUBKTNV-1">
          <mxGeometry x="170" y="380" width="120" height="60" as="geometry" />
        </mxCell>
        <mxCell id="ZVZWPxP480O0gG1tIGuu-12" value="" style="edgeStyle=orthogonalEdgeStyle;rounded=0;orthogonalLoop=1;jettySize=auto;html=1;endSize=8;endArrow=block;endFill=0;" edge="1" parent="WIyWlLk6GJQsqaUBKTNV-1" source="ZVZWPxP480O0gG1tIGuu-8" target="ZVZWPxP480O0gG1tIGuu-11">
          <mxGeometry relative="1" as="geometry">
            <Array as="points">
              <mxPoint x="510" y="300" />
              <mxPoint x="510" y="300" />
            </Array>
          </mxGeometry>
        </mxCell>
        <mxCell id="ZVZWPxP480O0gG1tIGuu-8" value="利用CLS解卷积算法（MATLAB中的`deconvreg`函数），根据s和p计算p*PSF+n=s中的PSF" style="rounded=0;whiteSpace=wrap;html=1;" vertex="1" parent="WIyWlLk6GJQsqaUBKTNV-1">
          <mxGeometry x="390" y="365" width="240" height="90" as="geometry" />
        </mxCell>
        <mxCell id="ZVZWPxP480O0gG1tIGuu-11" value="各块求得的PSF求平均，得到最终的求解结果" style="rounded=0;whiteSpace=wrap;html=1;" vertex="1" parent="WIyWlLk6GJQsqaUBKTNV-1">
          <mxGeometry x="450" y="210" width="120" height="60" as="geometry" />
        </mxCell>
      </root>
    </mxGraphModel>
  </diagram>
</mxfile>
